<mxfile host="app.diagrams.net" modified="2023-06-14T15:13:22.900Z" agent="Mozilla/5.0 (X11; Ubuntu; Linux x86_64; rv:109.0) Gecko/20100101 Firefox/114.0" version="21.3.8" etag="Hmzi_Rfnui5AtNztG7EM" type="github">
  <diagram name="Страница 1" id="WttAym7ddg_-MkBwXIeT">
    <mxGraphModel>
      <root>
        <mxCell id="0" />
        <mxCell id="1" parent="0" />
      </root>
    </mxGraphModel>
  </diagram>
</mxfile>
